<svg width="160" height="44" viewBox="0 0 160 44" fill="none" xmlns="http://www.w3.org/2000/svg">
<path d="M19.2623 34.8233L26.4517 26.0143H36.113C38.4115 26.0143 41.117 26.0143 42.9558 26.1183C41.9195 24.8901 40.3106 22.7893 39.0445 21.1517L32.1452 12.0876L14.0887 34.8233H0L24.6694 3.84241C26.2784 1.8457 28.6372 0 32.3751 0C36.113 0 38.2985 1.69133 39.9639 3.84241L64.0003 34.8233H19.2623Z" fill="#FE347E"/>
<path d="M86.5157 14.2097C95.9323 14.2097 103.771 17.3872 104.293 23.6845C105.05 32.8405 93.317 34.8751 83.8549 35.2143L48.6562 34.8751L56.5135 26.4516H85.7398C88.1923 26.1125 89.4602 25.3868 89.4602 23.576C89.4602 21.7651 88.1886 21.0903 85.3613 21.0903H64.3367C54.4016 21.0903 49.8409 17.1058 49.8409 11.1544C49.8409 4.63327 54.693 0.390991 66.4184 0.390991H99.9744L92.2913 9.39438H65.4911C62.7206 9.39438 61.3921 10.015 61.3921 11.7749C61.3921 13.5349 62.7206 14.2064 65.4911 14.2064H86.5157V14.2097Z" fill="#FE347E"/>
<path d="M109.376 14.0207H103.016V34.823H114.852V5.47754C112.037 7.73358 110.115 10.6366 109.376 14.0207Z" fill="#FE347E"/>
<path d="M114.851 0.391235V5.59779C112.034 7.83926 110.109 10.7236 109.371 14.0858H103.005V9.37397H95.563L103.005 0.391235H114.851Z" fill="#FE347E"/>
<path d="M121.972 14.1135C123.728 11.2098 127.619 9.34828 132.334 9.34828H152.26L160 0.391235H132.334C125.227 0.391235 119.107 2.30337 114.933 5.60831C112.09 7.85431 110.149 10.7444 109.403 14.1135H64.8165V14.1236L64.438 20.8582L102.981 20.9155H103.45L109.521 20.9257C110.342 24.1159 112.23 26.942 114.933 29.2015C119.107 32.6919 125.227 34.8232 132.334 34.8232H158.846L158.297 14.1135H121.972ZM146.947 25.9707H132.334C127.255 25.9707 123.289 24.0721 121.707 20.9425L146.947 20.9796V25.9707Z" fill="#FE347E"/>
<path d="M106.188 19.1722C105.918 19.1722 105.67 19.1347 105.443 19.0598C105.219 18.9819 105.023 18.8724 104.854 18.7312C104.689 18.5899 104.559 18.4242 104.465 18.234C104.374 18.0438 104.329 17.8348 104.329 17.6071C104.329 17.3794 104.374 17.1704 104.465 16.9802C104.559 16.7899 104.69 16.6242 104.859 16.483C105.028 16.3418 105.226 16.2337 105.453 16.1587C105.68 16.0809 105.93 16.042 106.202 16.042C106.504 16.042 106.775 16.0867 107.015 16.176C107.258 16.2654 107.463 16.3951 107.628 16.5651L107.122 16.9802C106.999 16.8649 106.864 16.7799 106.718 16.7251C106.572 16.6675 106.413 16.6386 106.241 16.6386C106.076 16.6386 105.925 16.6617 105.789 16.7078C105.652 16.7539 105.534 16.8202 105.433 16.9067C105.336 16.9932 105.26 17.0955 105.205 17.2136C105.153 17.3318 105.127 17.463 105.127 17.6071C105.127 17.7483 105.153 17.878 105.205 17.9962C105.26 18.1144 105.336 18.2181 105.433 18.3075C105.534 18.394 105.651 18.4602 105.784 18.5064C105.92 18.5525 106.069 18.5755 106.231 18.5755C106.387 18.5755 106.538 18.5539 106.684 18.5107C106.833 18.4646 106.978 18.3882 107.117 18.2815L107.565 18.7874C107.38 18.9113 107.164 19.0064 106.918 19.0727C106.674 19.139 106.431 19.1722 106.188 19.1722ZM106.845 18.6966V17.5595H107.565V18.7874L106.845 18.6966Z" fill="white"/>
<path d="M107.849 19.1203L109.368 16.0939H110.146L111.669 19.1203H110.842L109.596 16.4484H109.908L108.657 19.1203H107.849ZM108.608 18.4718L108.818 17.94H110.57L110.784 18.4718H108.608Z" fill="white"/>
<path d="M112.023 19.1203V16.0939H112.675L114.125 18.2297H113.78L115.205 16.0939H115.853L115.862 19.1203H115.123L115.118 17.1012H115.254L114.115 18.8004H113.76L112.597 17.1012H112.762V19.1203H112.023Z" fill="white"/>
<path d="M117.396 17.3131H119.036V17.8578H117.396V17.3131ZM117.454 18.5582H119.308V19.1203H116.671V16.0939H119.245V16.6559H117.454V18.5582Z" fill="white"/>
<path d="M121.163 18.1735V17.633H122.54V18.1735H121.163Z" fill="white"/>
<path d="M125.591 19.1203L124.121 16.0939H124.973L126.257 18.7744H125.756L127.06 16.0939H127.844L126.369 19.1203H125.591Z" fill="white"/>
<path d="M128.853 17.3131H130.493V17.8578H128.853V17.3131ZM128.912 18.5582H130.766V19.1203H128.128V16.0939H130.703V16.6559H128.912V18.5582Z" fill="white"/>
<path d="M131.393 19.1203V16.0939H132.868C133.173 16.0939 133.435 16.1385 133.656 16.2279C133.877 16.3144 134.047 16.4397 134.167 16.604C134.287 16.7683 134.347 16.9643 134.347 17.192C134.347 17.4169 134.287 17.6114 134.167 17.7757C134.047 17.9371 133.877 18.061 133.656 18.1475C133.435 18.234 133.173 18.2772 132.868 18.2772H131.831L132.181 17.9703V19.1203H131.393ZM133.559 19.1203L132.707 18.0221H133.549L134.41 19.1203H133.559ZM132.181 18.0481L131.831 17.7195H132.824C133.067 17.7195 133.249 17.6734 133.369 17.5811C133.489 17.486 133.549 17.3563 133.549 17.192C133.549 17.0249 133.489 16.8952 133.369 16.8029C133.249 16.7107 133.067 16.6646 132.824 16.6646H131.831L132.181 16.3317V18.0481Z" fill="white"/>
<path d="M136.091 19.1722C135.818 19.1722 135.557 19.1405 135.307 19.0771C135.058 19.0108 134.856 18.9257 134.704 18.822L134.972 18.2945C135.118 18.3867 135.289 18.4631 135.487 18.5237C135.689 18.5813 135.891 18.6101 136.096 18.6101C136.251 18.6101 136.376 18.5972 136.47 18.5712C136.568 18.5424 136.639 18.5035 136.685 18.4545C136.73 18.4055 136.753 18.3493 136.753 18.2859C136.753 18.2052 136.717 18.1418 136.646 18.0956C136.574 18.0466 136.48 18.0077 136.363 17.9789C136.247 17.9472 136.117 17.9184 135.974 17.8924C135.835 17.8636 135.693 17.829 135.551 17.7887C135.411 17.7483 135.283 17.6964 135.166 17.633C135.049 17.5696 134.954 17.486 134.879 17.3823C134.808 17.2785 134.772 17.1459 134.772 16.9845C134.772 16.8116 134.824 16.6545 134.928 16.5132C135.035 16.3691 135.194 16.2553 135.405 16.1717C135.619 16.0852 135.886 16.042 136.208 16.042C136.422 16.042 136.633 16.0651 136.84 16.1112C137.048 16.1544 137.231 16.2207 137.39 16.31L137.147 16.8418C136.988 16.7611 136.829 16.702 136.67 16.6646C136.511 16.6242 136.355 16.604 136.203 16.604C136.05 16.604 135.925 16.6199 135.828 16.6516C135.731 16.6833 135.661 16.7251 135.619 16.777C135.577 16.826 135.556 16.8836 135.556 16.9499C135.556 17.0277 135.591 17.0912 135.663 17.1401C135.734 17.1863 135.828 17.2237 135.945 17.2526C136.062 17.2814 136.19 17.3102 136.329 17.339C136.472 17.3679 136.613 17.401 136.753 17.4385C136.895 17.4759 137.025 17.5264 137.142 17.5898C137.259 17.6532 137.353 17.7368 137.424 17.8405C137.499 17.9443 137.536 18.0755 137.536 18.234C137.536 18.404 137.483 18.5597 137.376 18.7009C137.268 18.8422 137.108 18.956 136.894 19.0425C136.683 19.1289 136.415 19.1722 136.091 19.1722Z" fill="white"/>
<path d="M138.8 17.3131H140.44V17.8578H138.8V17.3131ZM138.858 18.5582H140.712V19.1203H138.075V16.0939H140.649V16.6559H138.858V18.5582Z" fill="white"/>
<path d="M1.75244 42.9814L3.5611 39.5767H4.48862L6.30307 42.9814H5.31759L3.83356 39.9755H4.20456L2.71474 42.9814H1.75244ZM2.65677 42.2518L2.90604 41.6536H4.99295L5.24802 42.2518H2.65677Z" fill="#FE347E"/>
<path d="M8.75302 42.9814V39.5767H10.5095C10.8728 39.5767 11.1858 39.6269 11.4486 39.7275C11.7114 39.8247 11.9143 39.9658 12.0573 40.1506C12.2003 40.3354 12.2718 40.5559 12.2718 40.8121C12.2718 41.065 12.2003 41.2839 12.0573 41.4687C11.9143 41.6503 11.7114 41.7897 11.4486 41.887C11.1858 41.9843 10.8728 42.0329 10.5095 42.0329H9.27475L9.69213 41.6876V42.9814H8.75302ZM11.3327 42.9814L10.3182 41.746H11.3211L12.3471 42.9814H11.3327ZM9.69213 41.7752L9.27475 41.4055H10.4573C10.7472 41.4055 10.9636 41.3536 11.1066 41.2499C11.2496 41.1428 11.3211 40.9969 11.3211 40.8121C11.3211 40.624 11.2496 40.4781 11.1066 40.3744C10.9636 40.2706 10.7472 40.2187 10.4573 40.2187H9.27475L9.69213 39.8442V41.7752Z" fill="#FE347E"/>
<path d="M15.9085 40.9483H17.8621V41.5611H15.9085V40.9483ZM15.9781 42.3491H18.1867V42.9814H15.0448V39.5767H18.1114V40.209H15.9781V42.3491Z" fill="#FE347E"/>
<path d="M20.4296 42.9814L22.2382 39.5767H23.1658L24.9802 42.9814H23.9947L22.5107 39.9755H22.8817L21.3919 42.9814H20.4296ZM21.3339 42.2518L21.5832 41.6536H23.6701L23.9252 42.2518H21.3339Z" fill="#FE347E"/>
<path d="M33.0718 43.0398C32.751 43.0398 32.4535 42.996 32.1791 42.9084C31.9086 42.8209 31.6728 42.6977 31.4718 42.5388C31.2747 42.3799 31.1202 42.1934 31.0081 41.9794C30.8999 41.7654 30.8458 41.532 30.8458 41.279C30.8458 41.0261 30.8999 40.7926 31.0081 40.5786C31.1202 40.3646 31.2767 40.1782 31.4776 40.0193C31.6786 39.8604 31.9143 39.7372 32.1849 39.6496C32.4554 39.5621 32.7491 39.5183 33.066 39.5183C33.3868 39.5183 33.6805 39.5621 33.9472 39.6496C34.2177 39.7372 34.4515 39.8604 34.6486 40.0193C34.8496 40.1782 35.0061 40.3646 35.1181 40.5786C35.2302 40.7894 35.2863 41.0229 35.2863 41.279C35.2863 41.532 35.2302 41.767 35.1181 41.9843C35.0061 42.1983 34.8496 42.3848 34.6486 42.5436C34.4515 42.6993 34.2177 42.8209 33.9472 42.9084C33.6805 42.996 33.3887 43.0398 33.0718 43.0398ZM33.066 42.3685C33.2477 42.3685 33.4138 42.3426 33.5646 42.2907C33.7191 42.2388 33.8544 42.1643 33.9703 42.067C34.0863 41.9697 34.1752 41.8546 34.237 41.7217C34.3027 41.5887 34.3356 41.4412 34.3356 41.279C34.3356 41.1169 34.3027 40.9694 34.237 40.8364C34.1752 40.7035 34.0863 40.5884 33.9703 40.4911C33.8583 40.3938 33.7249 40.3192 33.5704 40.2673C33.4158 40.2155 33.2477 40.1895 33.066 40.1895C32.8844 40.1895 32.7163 40.2155 32.5617 40.2673C32.411 40.3192 32.2776 40.3938 32.1617 40.4911C32.0457 40.5884 31.9549 40.7035 31.8892 40.8364C31.8274 40.9694 31.7965 41.1169 31.7965 41.279C31.7965 41.4379 31.8274 41.5855 31.8892 41.7217C31.9549 41.8546 32.0438 41.9697 32.1559 42.067C32.2718 42.1643 32.4071 42.2388 32.5617 42.2907C32.7163 42.3426 32.8844 42.3685 33.066 42.3685Z" fill="#FE347E"/>
<path d="M38.8905 41.1088H40.8383V41.7411H38.8905V41.1088ZM38.9601 42.9814H38.021V39.5767H41.0876V40.209H38.9601V42.9814Z" fill="#FE347E"/>
<path d="M48.7563 43.0398C48.4316 43.0398 48.1205 43.0041 47.823 42.9328C47.5254 42.8582 47.2858 42.7625 47.1041 42.6458L47.423 42.0524C47.5969 42.1562 47.8017 42.2421 48.0374 42.3102C48.2771 42.375 48.5186 42.4075 48.7621 42.4075C48.9476 42.4075 49.0964 42.3929 49.2084 42.3637C49.3244 42.3313 49.4094 42.2875 49.4635 42.2324C49.5176 42.1772 49.5447 42.114 49.5447 42.0427C49.5447 41.9519 49.5021 41.8805 49.4171 41.8287C49.3321 41.7735 49.22 41.7298 49.0809 41.6973C48.9418 41.6617 48.7872 41.6292 48.6171 41.6001C48.451 41.5676 48.2828 41.5287 48.1128 41.4833C47.9466 41.4379 47.794 41.3796 47.6548 41.3082C47.5157 41.2369 47.4017 41.1428 47.3128 41.0261C47.2278 40.9094 47.1853 40.7602 47.1853 40.5786C47.1853 40.3841 47.2471 40.2074 47.3708 40.0485C47.4983 39.8863 47.6877 39.7583 47.9389 39.6642C48.194 39.5669 48.5128 39.5183 48.8954 39.5183C49.1505 39.5183 49.4017 39.5443 49.649 39.5961C49.8963 39.6448 50.1147 39.7194 50.3041 39.8199L50.0142 40.4181C49.8248 40.3273 49.6355 40.2609 49.4461 40.2187C49.2567 40.1733 49.0712 40.1506 48.8896 40.1506C48.708 40.1506 48.5592 40.1685 48.4432 40.2041C48.3273 40.2398 48.2442 40.2868 48.194 40.3452C48.1437 40.4003 48.1186 40.4651 48.1186 40.5397C48.1186 40.6273 48.1611 40.6986 48.2461 40.7537C48.3312 40.8056 48.4432 40.8478 48.5824 40.8802C48.7215 40.9126 48.8741 40.9451 49.0403 40.9775C49.2104 41.0099 49.3785 41.0472 49.5447 41.0893C49.7147 41.1315 49.8693 41.1882 50.0084 41.2596C50.1475 41.3309 50.2596 41.425 50.3446 41.5417C50.4335 41.6584 50.478 41.806 50.478 41.9843C50.478 42.1756 50.4142 42.3507 50.2867 42.5096C50.1591 42.6685 49.9678 42.7966 49.7128 42.8938C49.4616 42.9911 49.1427 43.0398 48.7563 43.0398Z" fill="#FE347E"/>
<path d="M55.0906 43.0398C54.7776 43.0398 54.4858 42.9976 54.2153 42.9133C53.9486 42.8258 53.7167 42.7025 53.5196 42.5436C53.3225 42.3848 53.1679 42.1983 53.0559 41.9843C52.9477 41.7703 52.8935 41.5352 52.8935 41.279C52.8935 41.0229 52.9477 40.7878 53.0559 40.5738C53.1679 40.3598 53.3225 40.1733 53.5196 40.0144C53.7206 39.8555 53.9544 39.7339 54.2211 39.6496C54.4877 39.5621 54.7795 39.5183 55.0964 39.5183C55.4481 39.5183 55.765 39.5702 56.0471 39.674C56.3331 39.7745 56.5727 39.9236 56.7659 40.1214L56.163 40.5884C56.0239 40.4554 55.8693 40.3565 55.6993 40.2917C55.5292 40.2236 55.3437 40.1895 55.1428 40.1895C54.9534 40.1895 54.7795 40.2155 54.621 40.2673C54.4626 40.3192 54.3254 40.3938 54.2095 40.4911C54.0935 40.5884 54.0027 40.7035 53.937 40.8364C53.8752 40.9694 53.8442 41.1169 53.8442 41.279C53.8442 41.4412 53.8752 41.5887 53.937 41.7217C54.0027 41.8546 54.0935 41.9697 54.2095 42.067C54.3254 42.1643 54.4626 42.2388 54.621 42.2907C54.7795 42.3426 54.9534 42.3685 55.1428 42.3685C55.3437 42.3685 55.5292 42.3361 55.6993 42.2713C55.8693 42.2032 56.0239 42.101 56.163 41.9648L56.7659 42.4318C56.5727 42.6296 56.3331 42.7804 56.0471 42.8841C55.765 42.9879 55.4462 43.0398 55.0906 43.0398Z" fill="#FE347E"/>
<path d="M59.4291 42.9814V39.5767H60.3682V42.9814H59.4291Z" fill="#FE347E"/>
<path d="M64.2239 40.9483H66.1775V41.5611H64.2239V40.9483ZM64.2934 42.3491H66.5021V42.9814H63.3601V39.5767H66.4267V40.209H64.2934V42.3491Z" fill="#FE347E"/>
<path d="M69.2783 42.9814V39.5767H70.0551L72.4492 42.0281H72.0724V39.5767H72.9999V42.9814H72.2289L69.829 40.53H70.2058V42.9814H69.2783Z" fill="#FE347E"/>
<path d="M77.9309 43.0398C77.6179 43.0398 77.3261 42.9976 77.0556 42.9133C76.7889 42.8258 76.5571 42.7025 76.36 42.5436C76.1629 42.3848 76.0083 42.1983 75.8962 41.9843C75.788 41.7703 75.7339 41.5352 75.7339 41.279C75.7339 41.0229 75.788 40.7878 75.8962 40.5738C76.0083 40.3598 76.1629 40.1733 76.36 40.0144C76.5609 39.8555 76.7947 39.7339 77.0614 39.6496C77.328 39.5621 77.6198 39.5183 77.9367 39.5183C78.2884 39.5183 78.6053 39.5702 78.8874 39.674C79.1734 39.7745 79.413 39.9236 79.6063 40.1214L79.0034 40.5884C78.8643 40.4554 78.7097 40.3565 78.5396 40.2917C78.3696 40.2236 78.1841 40.1895 77.9831 40.1895C77.7937 40.1895 77.6198 40.2155 77.4614 40.2673C77.3029 40.3192 77.1657 40.3938 77.0498 40.4911C76.9339 40.5884 76.843 40.7035 76.7773 40.8364C76.7155 40.9694 76.6846 41.1169 76.6846 41.279C76.6846 41.4412 76.7155 41.5887 76.7773 41.7217C76.843 41.8546 76.9339 41.9697 77.0498 42.067C77.1657 42.1643 77.3029 42.2388 77.4614 42.2907C77.6198 42.3426 77.7937 42.3685 77.9831 42.3685C78.1841 42.3685 78.3696 42.3361 78.5396 42.2713C78.7097 42.2032 78.8643 42.101 79.0034 41.9648L79.6063 42.4318C79.413 42.6296 79.1734 42.7804 78.8874 42.8841C78.6053 42.9879 78.2865 43.0398 77.9309 43.0398Z" fill="#FE347E"/>
<path d="M83.1331 40.9483H85.0867V41.5611H83.1331V40.9483ZM83.2027 42.3491H85.4114V42.9814H82.2694V39.5767H85.336V40.209H83.2027V42.3491Z" fill="#FE347E"/>
<path d="M91.8582 42.9814V39.5767H92.7973V42.9814H91.8582Z" fill="#FE347E"/>
<path d="M96.6298 42.9814V40.2187H95.3313V39.5767H98.8675V40.2187H97.5689V42.9814H96.6298Z" fill="#FE347E"/>
<path d="M104.539 42.9814L106.348 39.5767H107.275L109.09 42.9814H108.104L106.62 39.9755H106.991L105.501 42.9814H104.539ZM105.443 42.2518L105.693 41.6536H107.78L108.035 42.2518H105.443Z" fill="#FE347E"/>
<path d="M111.54 42.9814V39.5767H112.316L114.711 42.0281H114.334V39.5767H115.261V42.9814H114.49L112.09 40.53H112.467V42.9814H111.54Z" fill="#FE347E"/>
<path d="M118.25 42.9814V39.5767H120.094C120.534 39.5767 120.923 39.648 121.259 39.7907C121.595 39.9301 121.858 40.1263 122.047 40.3792C122.237 40.6321 122.331 40.9321 122.331 41.279C122.331 41.6228 122.237 41.9227 122.047 42.1789C121.858 42.4318 121.595 42.6296 121.259 42.7723C120.923 42.9117 120.534 42.9814 120.094 42.9814H118.25ZM119.189 42.3345H120.047C120.318 42.3345 120.552 42.2923 120.749 42.208C120.95 42.1205 121.104 41.9973 121.213 41.8384C121.325 41.6795 121.381 41.493 121.381 41.279C121.381 41.0618 121.325 40.8753 121.213 40.7197C121.104 40.5608 120.95 40.4392 120.749 40.3549C120.552 40.2673 120.318 40.2236 120.047 40.2236H119.189V42.3345Z" fill="#FE347E"/>
<path d="M130.699 43.0398C130.378 43.0398 130.082 42.9976 129.812 42.9133C129.545 42.8258 129.311 42.7025 129.11 42.5436C128.913 42.3848 128.759 42.1983 128.646 41.9843C128.538 41.7703 128.484 41.5352 128.484 41.279C128.484 41.0229 128.538 40.7878 128.646 40.5738C128.759 40.3598 128.915 40.1733 129.116 40.0144C129.317 39.8555 129.553 39.7339 129.823 39.6496C130.094 39.5621 130.391 39.5183 130.716 39.5183C131.075 39.5183 131.398 39.5686 131.684 39.6691C131.974 39.7696 132.217 39.9155 132.415 40.1068L131.812 40.5738C131.665 40.4441 131.504 40.3484 131.33 40.2868C131.157 40.222 130.967 40.1895 130.762 40.1895C130.565 40.1895 130.386 40.2155 130.223 40.2673C130.061 40.3192 129.92 40.3938 129.8 40.4911C129.684 40.5884 129.593 40.7035 129.528 40.8364C129.466 40.9694 129.435 41.1169 129.435 41.279C129.435 41.4379 129.466 41.5838 129.528 41.7168C129.593 41.8497 129.684 41.9665 129.8 42.067C129.92 42.1643 130.059 42.2388 130.217 42.2907C130.38 42.3426 130.558 42.3685 130.751 42.3685C130.936 42.3685 131.116 42.3442 131.29 42.2956C131.468 42.2437 131.64 42.1578 131.806 42.0378L132.339 42.6069C132.119 42.7463 131.862 42.8533 131.568 42.9279C131.278 43.0025 130.988 43.0398 130.699 43.0398ZM131.481 42.5047V41.2255H132.339V42.6069L131.481 42.5047Z" fill="#FE347E"/>
<path d="M134.707 42.9814L136.516 39.5767H137.443L139.258 42.9814H138.272L136.788 39.9755H137.159L135.669 42.9814H134.707ZM135.611 42.2518L135.861 41.6536H137.948L138.203 42.2518H135.611Z" fill="#FE347E"/>
<path d="M141.708 42.9814V39.5767H142.484L144.212 41.9794H143.8L145.499 39.5767H146.27L146.282 42.9814H145.4L145.395 40.71H145.557L144.2 42.6215H143.777L142.392 40.71H142.589V42.9814H141.708Z" fill="#FE347E"/>
<path d="M150.137 40.9483H152.091V41.5611H150.137V40.9483ZM150.207 42.3491H152.415V42.9814H149.273V39.5767H152.34V40.209H150.207V42.3491Z" fill="#FE347E"/>
<path d="M156.525 43.0398C156.2 43.0398 155.889 43.0041 155.591 42.9328C155.294 42.8582 155.054 42.7625 154.873 42.6458L155.191 42.0524C155.365 42.1562 155.57 42.2421 155.806 42.3102C156.045 42.375 156.287 42.4075 156.53 42.4075C156.716 42.4075 156.865 42.3929 156.977 42.3637C157.093 42.3313 157.178 42.2875 157.232 42.2324C157.286 42.1772 157.313 42.114 157.313 42.0427C157.313 41.9519 157.271 41.8805 157.186 41.8287C157.1 41.7735 156.988 41.7298 156.849 41.6973C156.71 41.6617 156.556 41.6292 156.386 41.6001C156.219 41.5676 156.051 41.5287 155.881 41.4833C155.715 41.4379 155.562 41.3796 155.423 41.3082C155.284 41.2369 155.17 41.1428 155.081 41.0261C154.996 40.9094 154.954 40.7602 154.954 40.5786C154.954 40.3841 155.016 40.2074 155.139 40.0485C155.267 39.8863 155.456 39.7583 155.707 39.6642C155.962 39.5669 156.281 39.5183 156.664 39.5183C156.919 39.5183 157.17 39.5443 157.417 39.5961C157.665 39.6448 157.883 39.7194 158.072 39.8199L157.783 40.4181C157.593 40.3273 157.404 40.2609 157.214 40.2187C157.025 40.1733 156.84 40.1506 156.658 40.1506C156.476 40.1506 156.328 40.1685 156.212 40.2041C156.096 40.2398 156.013 40.2868 155.962 40.3452C155.912 40.4003 155.887 40.4651 155.887 40.5397C155.887 40.6273 155.929 40.6986 156.015 40.7537C156.1 40.8056 156.212 40.8478 156.351 40.8802C156.49 40.9126 156.643 40.9451 156.809 40.9775C156.979 41.0099 157.147 41.0472 157.313 41.0893C157.483 41.1315 157.638 41.1882 157.777 41.2596C157.916 41.3309 158.028 41.425 158.113 41.5417C158.202 41.6584 158.246 41.806 158.246 41.9843C158.246 42.1756 158.183 42.3507 158.055 42.5096C157.928 42.6685 157.736 42.7966 157.481 42.8938C157.23 42.9911 156.911 43.0398 156.525 43.0398Z" fill="#FE347E"/>
</svg>
